<?xml version="1.0" standalone="no"?>
<svg
  width="600"
  height="600"
  viewBox="0 0 600 600"
  xmlns="http://www.w3.org/2000/svg"
>
  <g transform="translate(300,300)">
    <path d="M142.4,-214.7C185.3,-194,221.4,-155.8,234.4,-111.6C247.5,-67.5,237.6,-17.4,220.2,24.4C202.9,66.1,178.2,99.5,151.8,133.6C125.5,167.6,97.5,202.3,61,217.4C24.5,232.5,-20.6,228,-61.5,214C-102.5,199.9,-139.3,176.2,-172.1,145.3C-204.8,114.3,-233.6,76,-246.5,31.3C-259.5,-13.5,-256.6,-64.7,-233.5,-103.1C-210.5,-141.5,-167.1,-167.1,-124.8,-188.1C-82.5,-209.1,-41.3,-225.5,4.2,-232.1C49.7,-238.7,99.5,-235.5,142.4,-214.7Z" fill="#0099ff" fill-opacity="0.25" />
  </g>
</svg>
