<?xml version="1.0" standalone="no"?>
<svg xmlns="http://www.w3.org/2000/svg" viewBox="0 0 1440 320">
  <!--  <path fill="#63c1ff" fill-opacity="1" #0099ff-->
  <!--  <path fill="#0099ff" fill-opacity="0.35"-->
  <path fill="#000000" fill-opacity="0.03"
        d="M0,288L48,277.3C96,267,192,245,288,202.7C384,160,480,96,576,112C672,128,768,224,864,240C960,256,1056,192,1152,176C1248,160,1344,192,1392,208L1440,224L1440,320L1392,320C1344,320,1248,320,1152,320C1056,320,960,320,864,320C768,320,672,320,576,320C480,320,384,320,288,320C192,320,96,320,48,320L0,320Z"></path>
</svg>
